<?xml version="1.0" standalone="no"?>
<!DOCTYPE svg PUBLIC "-//W3C//DTD SVG 20010904//EN"
 "http://www.w3.org/TR/2001/REC-SVG-20010904/DTD/svg10.dtd">
<svg version="1.0" xmlns="http://www.w3.org/2000/svg"
 width="700.000000pt" height="700.000000pt" viewBox="0 0 700.000000 700.000000"
 preserveAspectRatio="xMidYMid meet">
<metadata>
Created by potrace 1.14, written by Peter Selinger 2001-2017
</metadata>
<g transform="translate(0.000000,700.000000) scale(0.100000,-0.100000)"
fill="#000000" stroke="none">
<path d="M3118 6990 c-2 -6 -41 -15 -88 -20 -83 -8 -121 -15 -265 -46 -167
-36 -335 -85 -465 -134 -30 -12 -66 -25 -80 -30 -47 -15 -187 -78 -299 -134
-658 -330 -1217 -889 -1547 -1547 -56 -112 -119 -252 -134 -299 -5 -14 -18
-50 -30 -80 -49 -130 -98 -298 -134 -465 -31 -144 -38 -182 -46 -265 -5 -47
-14 -86 -20 -88 -13 -5 -14 -762 -1 -762 5 0 12 -30 16 -67 9 -96 51 -319 81
-433 65 -244 189 -569 282 -740 204 -376 366 -596 636 -865 451 -450 921 -723
1566 -910 96 -28 306 -72 383 -80 31 -4 57 -11 57 -16 0 -5 188 -9 470 -9 273
0 470 4 470 9 0 5 28 12 63 16 92 9 294 53 442 96 39 11 84 24 101 28 50 13
251 91 365 141 256 113 538 286 769 470 135 108 422 395 530 530 184 231 357
513 470 769 50 114 128 315 141 365 4 17 17 63 28 101 43 148 87 350 96 443 4
34 11 62 16 62 5 0 9 197 9 470 0 282 -4 470 -9 470 -5 0 -12 26 -16 58 -9 86
-51 276 -90 417 -43 152 -46 159 -125 365 -36 94 -71 170 -133 290 -171 334
-365 598 -642 876 -269 270 -489 432 -865 636 -163 89 -507 221 -735 281 -122
32 -340 73 -437 82 -38 4 -68 11 -68 16 0 13 -757 12 -762 -1z m-1017 -2461
c41 -16 83 -34 94 -39 65 -30 269 -112 322 -129 73 -25 143 -26 245 -7 74 14
307 85 365 112 17 8 38 14 46 14 9 0 18 4 21 9 3 5 23 12 43 16 21 4 43 11 50
17 6 5 24 8 40 6 25 -3 28 -7 31 -46 3 -34 -1 -46 -20 -63 -13 -11 -106 -63
-208 -116 -102 -52 -264 -136 -360 -186 -373 -194 -359 -187 -422 -187 -74 0
-112 23 -199 119 -60 66 -68 71 -119 80 -82 14 -262 31 -478 45 -110 7 -198
18 -204 24 -11 11 -12 279 -1 309 3 8 24 23 47 33 37 17 73 19 337 19 l297 1
73 -31z m1154 23 c-6 -5 -38 -19 -72 -31 -65 -24 -81 -22 -117 18 l-19 21 108
0 c60 0 105 -4 100 -8z m670 -1 c-11 -11 -156 -31 -221 -31 -27 0 -50 7 -65
20 l-24 19 160 1 c99 0 155 -4 150 -9z m773 4 c-8 -8 -153 -34 -282 -51 -90
-11 -132 -12 -168 -4 -27 5 -64 10 -83 10 -19 0 -37 5 -40 10 -4 6 36 10 112
11 65 0 143 7 173 14 52 12 299 21 288 10z m548 -4 c-3 -4 -24 -11 -46 -15
-32 -5 -55 -21 -113 -76 -57 -54 -88 -74 -138 -92 -136 -50 -258 -159 -322
-291 -50 -103 -61 -154 -54 -248 7 -87 3 -92 -59 -69 -21 8 -40 7 -80 -6 -29
-9 -60 -14 -68 -11 -8 3 -17 25 -21 49 -16 100 -68 158 -141 158 -47 0 -79
-23 -112 -81 -15 -27 -30 -49 -34 -49 -3 0 -19 11 -35 24 -83 69 -163 61 -243
-25 -33 -35 -89 -70 -136 -83 -13 -4 -30 1 -47 14 -45 36 -45 73 -5 378 10 80
10 103 -5 175 -24 114 -22 143 7 162 43 29 174 -4 376 -92 136 -60 243 -123
341 -201 82 -66 111 -73 122 -31 9 34 -57 84 -225 169 -87 44 -165 80 -173 80
-8 0 -15 5 -15 10 0 32 258 -22 387 -80 36 -17 78 -30 93 -30 39 0 133 51 147
80 22 44 5 50 -148 50 -128 0 -139 1 -149 20 -14 26 3 34 67 28 27 -3 101 -1
165 4 125 9 197 31 220 67 12 20 22 21 231 21 121 0 216 -4 213 -9z m380 -124
c30 -26 35 -64 14 -114 -20 -45 0 -77 65 -108 61 -29 78 -46 73 -77 -5 -40
-159 -107 -354 -155 -65 -16 -95 -13 -334 38 -53 12 -99 5 -145 -21 -30 -17
-34 -17 -40 -2 -10 26 28 66 76 81 24 8 51 16 59 19 18 6 -30 17 -112 27 -81
9 -82 8 112 175 124 108 151 120 266 120 70 0 102 5 135 20 64 28 150 27 185
-3z m-2278 -139 c9 -9 12 -229 12 -930 l0 -918 -105 0 -105 0 0 690 c0 762 4
718 -63 687 -17 -9 -53 -25 -79 -36 -26 -11 -52 -30 -59 -43 -9 -16 -15 -134
-21 -408 -5 -212 -11 -499 -14 -637 l-6 -253 -144 0 -144 0 0 63 c0 73 17 668
25 909 6 159 5 167 -14 177 -14 8 -34 6 -80 -9 -33 -10 -76 -22 -95 -26 -20
-3 -40 -11 -45 -18 -6 -6 -12 -165 -15 -376 -3 -201 -9 -445 -12 -542 l-5
-178 -107 0 -108 0 3 168 c2 92 7 205 13 252 5 47 12 209 16 360 5 226 4 278
-7 287 -16 13 -143 3 -158 -13 -5 -5 -14 -79 -21 -164 -33 -453 -40 -550 -51
-712 l-13 -178 -109 0 -109 0 6 28 c6 32 19 121 41 282 9 63 22 160 30 215 8
55 26 183 40 285 14 102 28 195 32 208 9 36 -22 62 -73 62 -53 0 -74 -20 -74
-68 0 -41 -26 -232 -41 -303 -6 -25 -14 -73 -19 -105 -12 -80 -29 -168 -46
-236 -34 -139 -73 -291 -86 -335 l-10 -33 -179 0 c-98 0 -179 2 -179 4 0 3 11
40 24 83 37 119 52 179 74 288 65 323 110 655 111 826 1 72 5 91 24 119 12 19
35 37 52 42 34 9 183 2 263 -13 122 -24 531 -1 594 32 9 5 25 9 34 9 10 0 101
41 203 92 349 172 774 378 781 378 3 0 11 -5 18 -12z m-1548 -238 c215 -10
261 -23 304 -87 14 -21 26 -43 26 -49 0 -6 -19 -20 -42 -30 -38 -17 -64 -19
-218 -16 -96 1 -184 7 -195 13 -11 5 -33 32 -48 58 -43 78 -83 111 -133 111
-24 0 -46 5 -50 11 -5 9 16 10 82 5 48 -4 172 -11 274 -16z m3267 -205 c50
-41 60 -45 108 -45 42 0 60 6 93 30 51 37 106 60 143 60 24 0 30 -5 38 -37 20
-72 6 -301 -20 -328 -5 -5 -9 -15 -9 -23 0 -8 -13 -36 -30 -63 -39 -65 -48
-129 -54 -403 -5 -283 15 -429 79 -578 7 -17 -11 -18 -290 -18 l-297 0 7 43
c4 23 11 49 15 57 8 16 40 173 61 300 8 47 13 181 13 360 1 309 -2 333 -56
442 -15 31 -28 62 -28 69 0 36 38 124 67 155 29 33 37 36 69 31 22 -4 57 -24
91 -52z m-833 -32 c60 -28 74 -77 101 -348 11 -107 -21 -131 -129 -100 -86 25
-98 51 -104 231 -5 153 2 192 42 219 27 19 47 19 90 -2z m-276 -49 c33 -23 50
-63 68 -156 8 -46 20 -103 26 -128 19 -85 20 -112 8 -135 -17 -31 -72 -55
-129 -55 -63 0 -87 25 -96 100 -9 79 -37 190 -47 184 -11 -7 -10 -91 2 -114 5
-10 12 -49 16 -87 5 -60 4 -71 -16 -95 -15 -20 -30 -28 -53 -28 -54 0 -105 19
-137 51 -29 30 -30 33 -30 123 0 87 2 96 30 134 37 52 68 72 120 79 29 4 45 1
58 -10 17 -15 19 -15 34 11 9 15 19 43 23 62 14 70 72 100 123 64z m561 -130
c48 -19 61 -38 89 -128 44 -139 20 -196 -80 -196 -29 0 -63 3 -75 6 -36 10
-62 64 -73 150 -12 91 -2 140 33 166 28 22 56 22 106 2z m960 -430 c13 -78 35
-178 50 -234 65 -240 133 -422 180 -489 12 -16 21 -32 21 -35 0 -3 -55 -6
-122 -6 l-123 0 -32 103 c-58 188 -66 262 -58 527 6 196 10 238 23 253 16 18
17 17 33 -21 10 -22 22 -66 28 -98z m-1169 96 c15 -15 20 -33 20 -77 -1 -107
-93 -497 -126 -534 -23 -25 -49 -24 -69 4 -13 19 -15 48 -9 213 l7 190 -27 53
c-14 29 -26 63 -26 76 0 26 49 72 83 80 12 2 31 6 42 8 49 11 86 6 105 -13z
m298 -63 c14 -11 16 -56 3 -89 -5 -13 -19 -54 -31 -93 -76 -249 -228 -462
-286 -403 -14 14 -15 27 -5 101 6 46 25 126 41 178 16 52 30 115 30 140 0 58
25 130 53 157 31 29 161 36 195 9z m-572 -32 c23 -31 27 -126 15 -307 -9 -134
-16 -189 -31 -223 -35 -83 -98 -86 -148 -8 -45 70 -62 151 -62 290 0 121 17
213 45 242 32 33 158 37 181 6z m2021 -117 c183 -175 324 -317 461 -463 98
-104 112 -124 110 -150 l-3 -30 -375 -3 c-372 -2 -375 -2 -392 19 -22 26 -23
68 -3 75 8 3 92 -2 187 -11 288 -29 301 -30 351 -27 26 2 47 6 47 10 0 24
-229 82 -423 107 -122 17 -147 26 -147 58 0 12 -13 54 -30 92 -28 66 -29 78
-30 208 0 145 9 186 49 226 12 12 30 21 40 21 11 0 78 -56 158 -132z m-2361
104 c25 -16 35 -59 50 -219 27 -278 29 -388 9 -433 -24 -54 -51 -58 -96 -14
-90 88 -115 189 -105 424 7 177 17 227 49 240 27 11 78 12 93 2z m-2444 -117
c-8 -110 -87 -432 -143 -578 l-22 -57 -103 0 -103 0 -31 103 c-16 56 -36 122
-44 147 -8 25 -22 74 -31 110 -10 36 -23 81 -31 101 -10 29 -10 40 -1 52 7 8
89 41 182 71 94 31 177 61 186 66 9 5 33 12 53 15 20 4 39 12 42 17 3 5 16 8
27 6 20 -3 22 -8 19 -53z m4406 13 c88 -27 92 -33 92 -156 0 -74 5 -98 30
-157 36 -83 36 -84 9 -163 -30 -88 -46 -84 -97 26 -91 194 -158 472 -114 472
3 0 39 -10 80 -22z m-5006 -68 c20 -25 36 -70 93 -265 10 -33 23 -76 30 -95 7
-19 18 -55 24 -80 6 -25 17 -66 25 -92 l13 -48 -167 0 -168 0 -10 38 c-5 20
-35 125 -66 232 -74 253 -69 279 51 315 32 9 63 19 68 21 26 9 91 -6 107 -26z
m3958 -260 c30 -19 6 -223 -31 -264 -5 -6 -9 -20 -9 -33 l0 -23 -380 0 -379 0
21 36 c26 44 41 50 70 30 39 -28 91 -20 138 19 46 39 60 42 93 20 20 -13 26
-12 52 5 l29 19 32 -24 c74 -56 164 -22 230 87 49 82 93 138 107 138 7 0 19
-4 27 -10z m80 -251 c16 -59 9 -69 -49 -69 -57 0 -57 3 -14 73 30 48 49 47 63
-4z"/>
</g>
</svg>
